<svg width="108" height="29" viewBox="0 0 108 29" fill="none" xmlns="http://www.w3.org/2000/svg">
<path d="M48.42 8.986V22H47.178C46.986 22 46.824 21.97 46.692 21.91C46.566 21.844 46.443 21.736 46.323 21.586L39.528 12.91C39.564 13.306 39.582 13.672 39.582 14.008V22H37.449V8.986H38.718C38.82 8.986 38.907 8.992 38.979 9.004C39.057 9.01 39.123 9.028 39.177 9.058C39.237 9.082 39.294 9.121 39.348 9.175C39.402 9.223 39.462 9.289 39.528 9.373L46.35 18.085C46.332 17.875 46.317 17.668 46.305 17.464C46.293 17.26 46.287 17.071 46.287 16.897V8.986H48.42ZM53.7481 22H51.3181V8.986H53.7481V22ZM70.7739 8.986V22H68.6409V13.594C68.6409 13.258 68.6589 12.895 68.6949 12.505L64.7619 19.894C64.5759 20.248 64.2909 20.425 63.9069 20.425H63.5649C63.1809 20.425 62.8959 20.248 62.7099 19.894L58.7319 12.478C58.7499 12.676 58.7649 12.871 58.7769 13.063C58.7889 13.255 58.7949 13.432 58.7949 13.594V22H56.6619V8.986H58.4889C58.5969 8.986 58.6899 8.989 58.7679 8.995C58.8459 9.001 58.9149 9.016 58.9749 9.04C59.0409 9.064 59.0979 9.103 59.1459 9.157C59.1999 9.211 59.2509 9.283 59.2989 9.373L63.1959 16.6C63.2979 16.792 63.3909 16.99 63.4749 17.194C63.5649 17.398 63.6519 17.608 63.7359 17.824C63.8199 17.602 63.9069 17.389 63.9969 17.185C64.0869 16.975 64.1829 16.774 64.2849 16.582L68.1279 9.373C68.1759 9.283 68.2269 9.211 68.2809 9.157C68.3349 9.103 68.3919 9.064 68.4519 9.04C68.5179 9.016 68.5899 9.001 68.6679 8.995C68.7459 8.989 68.8389 8.986 68.9469 8.986H70.7739ZM78.5465 20.11C78.9965 20.11 79.3745 20.056 79.6805 19.948C79.9865 19.84 80.2295 19.696 80.4095 19.516C80.5955 19.336 80.7275 19.126 80.8055 18.886C80.8895 18.646 80.9315 18.391 80.9315 18.121C80.9315 17.839 80.8865 17.587 80.7965 17.365C80.7065 17.137 80.5655 16.945 80.3735 16.789C80.1815 16.627 79.9325 16.504 79.6265 16.42C79.3265 16.336 78.9635 16.294 78.5375 16.294H76.0985V20.11H78.5465ZM76.0985 10.858V14.62H78.0245C78.8525 14.62 79.4765 14.47 79.8965 14.17C80.3225 13.87 80.5355 13.393 80.5355 12.739C80.5355 12.061 80.3435 11.578 79.9595 11.29C79.5755 11.002 78.9755 10.858 78.1595 10.858H76.0985ZM78.1595 8.986C79.0115 8.986 79.7405 9.067 80.3465 9.229C80.9525 9.391 81.4475 9.622 81.8315 9.922C82.2215 10.222 82.5065 10.585 82.6865 11.011C82.8665 11.437 82.9565 11.917 82.9565 12.451C82.9565 12.757 82.9115 13.051 82.8215 13.333C82.7315 13.609 82.5905 13.87 82.3985 14.116C82.2125 14.356 81.9725 14.575 81.6785 14.773C81.3905 14.971 81.0455 15.139 80.6435 15.277C82.4315 15.679 83.3255 16.645 83.3255 18.175C83.3255 18.727 83.2205 19.237 83.0105 19.705C82.8005 20.173 82.4945 20.578 82.0925 20.92C81.6905 21.256 81.1955 21.52 80.6075 21.712C80.0195 21.904 79.3475 22 78.5915 22H73.6775V8.986H78.1595ZM90.7632 20.047C91.2312 20.047 91.6482 19.969 92.0142 19.813C92.3862 19.657 92.6982 19.438 92.9502 19.156C93.2022 18.874 93.3942 18.532 93.5262 18.13C93.6642 17.728 93.7332 17.278 93.7332 16.78V8.986H96.1542V16.78C96.1542 17.554 96.0282 18.271 95.7762 18.931C95.5302 19.585 95.1732 20.152 94.7052 20.632C94.2432 21.106 93.6792 21.478 93.0132 21.748C92.3472 22.012 91.5972 22.144 90.7632 22.144C89.9232 22.144 89.1702 22.012 88.5042 21.748C87.8382 21.478 87.2712 21.106 86.8032 20.632C86.3412 20.152 85.9842 19.585 85.7322 18.931C85.4862 18.271 85.3632 17.554 85.3632 16.78V8.986H87.7842V16.771C87.7842 17.269 87.8502 17.719 87.9822 18.121C88.1202 18.523 88.3152 18.868 88.5672 19.156C88.8252 19.438 89.1372 19.657 89.5032 19.813C89.8752 19.969 90.2952 20.047 90.7632 20.047ZM105.815 11.353C105.743 11.479 105.665 11.572 105.581 11.632C105.503 11.686 105.404 11.713 105.284 11.713C105.158 11.713 105.02 11.668 104.87 11.578C104.726 11.482 104.552 11.377 104.348 11.263C104.144 11.149 103.904 11.047 103.628 10.957C103.358 10.861 103.037 10.813 102.665 10.813C102.329 10.813 102.035 10.855 101.783 10.939C101.531 11.017 101.318 11.128 101.144 11.272C100.976 11.416 100.85 11.59 100.766 11.794C100.682 11.992 100.64 12.211 100.64 12.451C100.64 12.757 100.724 13.012 100.892 13.216C101.066 13.42 101.294 13.594 101.576 13.738C101.858 13.882 102.179 14.011 102.539 14.125C102.899 14.239 103.268 14.362 103.646 14.494C104.024 14.62 104.393 14.77 104.753 14.944C105.113 15.112 105.434 15.328 105.716 15.592C105.998 15.85 106.223 16.168 106.391 16.546C106.565 16.924 106.652 17.383 106.652 17.923C106.652 18.511 106.55 19.063 106.346 19.579C106.148 20.089 105.854 20.536 105.464 20.92C105.08 21.298 104.609 21.598 104.051 21.82C103.493 22.036 102.854 22.144 102.134 22.144C101.72 22.144 101.312 22.102 100.91 22.018C100.508 21.94 100.121 21.826 99.7485 21.676C99.3825 21.526 99.0375 21.346 98.7135 21.136C98.3895 20.926 98.1015 20.692 97.8495 20.434L98.5605 19.273C98.6205 19.189 98.6985 19.12 98.7945 19.066C98.8905 19.006 98.9925 18.976 99.1005 18.976C99.2505 18.976 99.4125 19.039 99.5865 19.165C99.7605 19.285 99.9675 19.42 100.208 19.57C100.448 19.72 100.727 19.858 101.045 19.984C101.369 20.104 101.756 20.164 102.206 20.164C102.896 20.164 103.43 20.002 103.808 19.678C104.186 19.348 104.375 18.877 104.375 18.265C104.375 17.923 104.288 17.644 104.114 17.428C103.946 17.212 103.721 17.032 103.439 16.888C103.157 16.738 102.836 16.612 102.476 16.51C102.116 16.408 101.75 16.297 101.378 16.177C101.006 16.057 100.64 15.913 100.28 15.745C99.9195 15.577 99.5985 15.358 99.3165 15.088C99.0345 14.818 98.8065 14.482 98.6325 14.08C98.4645 13.672 98.3805 13.171 98.3805 12.577C98.3805 12.103 98.4735 11.641 98.6595 11.191C98.8515 10.741 99.1275 10.342 99.4875 9.994C99.8475 9.646 100.292 9.367 100.82 9.157C101.348 8.947 101.954 8.842 102.638 8.842C103.406 8.842 104.114 8.962 104.762 9.202C105.41 9.442 105.962 9.778 106.418 10.21L105.815 11.353Z" fill="white"/>
<path d="M21.605 13.05C21.605 12.615 21.75 12.18 21.75 11.6C21.75 8.41002 19.14 5.80002 15.95 5.80002C13.63 5.80002 11.745 7.10502 10.73 8.99002C10.44 8.84502 9.86001 8.70002 9.42501 8.70002C7.39501 8.70002 5.80001 10.295 5.80001 12.325C5.80001 12.615 5.80001 12.905 5.94501 13.05C3.33501 13.485 1.45001 15.515 1.45001 18.125C1.45001 20.88 3.77001 23.2 6.52501 23.2H21.025C23.78 23.2 26.1 20.88 26.1 18.125C26.1 15.515 24.215 13.34 21.605 13.05Z" fill="white"/>
</svg>
